<?xml version="1.0" encoding="UTF-8" standalone="yes"?>
<svg xmlns="http://www.w3.org/2000/svg" xmlns:xlink="http://www.w3.org/1999/xlink" width="100px" height="100px" viewBox="0 0 100 100" version="1.1" fill="currentColor">
  <g id="surface122876">
    <path style=" stroke:none;fill-rule:nonzero;fill:currentColor;fill-opacity:1;" d="M 100.125 20.875 C 96.429688 22.515625 92.46875 23.617188 88.304688 24.117188 C 92.554688 21.570312 95.820312 17.539062 97.351562 12.742188 C 93.382812 15.09375 88.96875 16.804688 84.289062 17.726562 C 80.539062 13.726562 75.195312 11.234375 69.28125 11.234375 C 57.921875 11.234375 48.710938 20.4375 48.710938 31.796875 C 48.710938 33.40625 48.898438 34.976562 49.25 36.484375 C 32.15625 35.625 17.007812 27.4375 6.859375 14.992188 C 5.085938 18.039062 4.078125 21.570312 4.078125 25.335938 C 4.078125 32.46875 7.703125 38.765625 13.226562 42.460938 C 9.851562 42.351562 6.679688 41.421875 3.90625 39.882812 C 3.90625 39.96875 3.90625 40.054688 3.90625 40.140625 C 3.90625 50.109375 11 58.414062 20.398438 60.3125 C 18.679688 60.78125 16.859375 61.03125 14.984375 61.03125 C 13.65625 61.03125 12.367188 60.90625 11.109375 60.65625 C 13.734375 68.820312 21.328125 74.78125 30.320312 74.945312 C 23.289062 80.460938 14.421875 83.742188 4.78125 83.742188 C 3.117188 83.742188 1.484375 83.648438 -0.117188 83.453125 C 8.976562 89.296875 19.789062 92.695312 31.40625 92.695312 C 69.234375 92.695312 89.921875 61.359375 89.921875 34.1875 C 89.921875 33.296875 89.898438 32.398438 89.867188 31.523438 C 93.882812 28.625 97.367188 25 100.125 20.875 Z M 100.125 20.875 "/>
  </g>
</svg>
