<svg xmlns="http://www.w3.org/2000/svg" width="32" height="32" viewBox="0 0 100 100">
  <style>
    path {
      fill: #2e3440; 
    }
    @media (prefers-color-scheme: dark) {
      path {
        fill: #ffffff;
      }
    }
  </style>
  <path d="M79.942,47.258c-1.995-1.468-4.618-2.231-7.792-2.267c-2.061-0.055-3.868,0.192-5.531,0.63 c-4.11,1.082-8.253,1.444-12.125,1.329c-5.175-0.168-10.581-0.92-16.053-1.599c-13.81-1.805-22.199,8.132-22.552,8.559 l2.809,2.391c0.072-0.09,7.424-8.814,19.287-7.258c5.593,0.692,11.109,1.456,16.393,1.626c4.149,0.129,8.606-0.243,13.163-1.444 c1.354-0.358,2.925-0.535,4.568-0.511c2.401,0.023,4.312,0.549,5.679,1.554c2.368,1.75,2.681,4.54,2.657,6.045 c-0.048,3.141-1.521,6.165-3.752,7.697c-1.262,0.87-2.905,1.329-4.748,1.329c-0.833-0.004-8.13-0.247-8.249-7.007l-3.664,0.062 c0.147,8.438,7.854,10.668,11.907,10.668c2.583,0,4.938-0.682,6.812-1.972c3.184-2.192,5.287-6.399,5.357-10.714 C84.172,52.583,82.65,49.259,79.942,47.258" />
  <path d="M36.445,39.001c5.134,0.462,10.491,1.721,15.624,2.152l0.608,0.053c3.207,0.28,6.839,0.598,10.172-0.876 c3.835-1.691,5.774-5.245,5.065-9.278c-0.667-3.78-3.93-7.781-8.752-8.096c-0.174-0.024-4.175-0.516-7.239,2.551l2.638,2.638 c1.737-1.732,4.033-1.497,4.232-1.478c3.026,0.202,5.032,2.685,5.445,5.034c0.193,1.099,0.3,3.803-2.895,5.214 C58.885,38,55.896,37.739,53,37.489l-0.615-0.053c-5.127-0.431-10.479-1.689-15.592-2.149 c-13.657-1.343-20.605,6.812-20.902,7.124l2.696,2.577C18.647,44.926,24.586,37.839,36.445,39.001" />
  <path d="M39.59,55.016c-12.228,0-19.387,6.815-19.688,7.109l2.643,2.562c0.062-0.059,6.347-6.041,17.046-6.041 c1.986,0,8.686,0.299,11.521,4.181c1.687,2.312,1.505,6.02-0.406,8.269c-1.779,2.084-4.898,2.888-7.771,1.987 c-1.543-0.486-2.55-1.689-3.082-3.684c-0.293-1.102-0.193-2.467,0.726-3.978c-1.107-0.611-2.216-1.219-3.325-1.826 c-1.393,1.832-1.539,4.753-1.018,6.709c0.854,3.206,2.772,5.359,5.55,6.231c1.191,0.372,2.399,0.552,3.586,0.552 c3.174,0,6.183-1.297,8.213-3.684c3.013-3.543,3.26-8.994,0.572-12.674C50.391,55.573,42.715,55.016,39.59,55.016" />
</svg>
