<svg
  version="1.1"
  xmlns="http://www.w3.org/2000/svg"
  xmlns:xlink="http://www.w3.org/1999/xlink"
  x="0px"
  y="0px"
  viewBox="0 0 512 512"
  style="enable-background:new 0 0 512 512;"
  xml:space="preserve"
>
  <path
    d="M464.944,378.17c-0.009-0.073-0.022-0.144-0.033-0.216c-0.034-0.233-0.079-0.462-0.134-0.688
	c-0.018-0.072-0.035-0.143-0.055-0.215c-0.073-0.265-0.159-0.525-0.26-0.777c-0.009-0.023-0.016-0.047-0.025-0.069
	c-0.118-0.287-0.255-0.565-0.406-0.833c-0.008-0.014-0.013-0.03-0.021-0.044L268.158,33.188c-0.034-0.059-0.073-0.111-0.108-0.169
	c-0.081-0.134-0.163-0.267-0.253-0.395c-0.066-0.094-0.136-0.184-0.205-0.275c-0.076-0.099-0.152-0.198-0.232-0.292
	c-0.087-0.103-0.178-0.2-0.27-0.297c-0.073-0.077-0.145-0.153-0.22-0.226c-0.101-0.098-0.206-0.191-0.311-0.283
	c-0.078-0.067-0.155-0.134-0.235-0.198c-0.105-0.084-0.213-0.163-0.322-0.241c-0.092-0.066-0.185-0.13-0.28-0.192
	c-0.1-0.065-0.202-0.125-0.305-0.185c-0.112-0.065-0.225-0.129-0.341-0.188c-0.091-0.047-0.184-0.09-0.276-0.133
	c-0.131-0.061-0.262-0.119-0.397-0.172c-0.086-0.034-0.174-0.065-0.261-0.095c-0.141-0.05-0.283-0.097-0.428-0.138
	c-0.091-0.026-0.183-0.048-0.275-0.071c-0.14-0.034-0.28-0.067-0.423-0.094c-0.11-0.021-0.221-0.035-0.332-0.051
	c-0.125-0.017-0.25-0.035-0.378-0.046c-0.14-0.012-0.28-0.017-0.42-0.021c-0.079-0.002-0.156-0.012-0.236-0.012h-56.616
	c-0.035,0-0.069,0.006-0.104,0.007c-0.258,0.004-0.514,0.021-0.77,0.051c-0.066,0.008-0.131,0.014-0.196,0.023
	c-0.593,0.086-1.172,0.242-1.728,0.466c-0.064,0.026-0.127,0.054-0.19,0.082c-0.227,0.098-0.448,0.208-0.664,0.328
	c-0.047,0.026-0.095,0.05-0.141,0.077c-0.516,0.302-0.998,0.669-1.435,1.096c-0.049,0.048-0.096,0.098-0.144,0.147
	c-0.164,0.169-0.319,0.346-0.468,0.532c-0.049,0.061-0.1,0.121-0.147,0.184c-0.177,0.236-0.345,0.481-0.497,0.742
	c-0.003,0.005-0.007,0.01-0.01,0.015c-0.001,0.002-0.001,0.003-0.002,0.005L1.005,375.3c-1.34,2.32-1.34,5.179,0,7.5l28.306,49.034
	c0.009,0.016,0.021,0.03,0.031,0.046c0.158,0.269,0.33,0.531,0.522,0.781c0.001,0.001,0.001,0.001,0.002,0.002
	c0.182,0.236,0.382,0.459,0.594,0.674c0.044,0.045,0.089,0.088,0.134,0.131c0.178,0.172,0.366,0.336,0.563,0.492
	c0.047,0.038,0.093,0.077,0.141,0.113c0.241,0.181,0.49,0.353,0.758,0.508c0.265,0.153,0.536,0.281,0.81,0.398
	c0.021,0.009,0.041,0.021,0.062,0.03c0.931,0.388,1.906,0.577,2.872,0.577c0.015,0,0.03-0.003,0.045-0.003h393.347
	c2.68,0,5.155-1.43,6.495-3.75l28.309-49.031c0.01-0.018,0.017-0.038,0.028-0.056c0.151-0.267,0.289-0.541,0.407-0.827
	c0.005-0.013,0.009-0.027,0.015-0.04c0.106-0.26,0.194-0.528,0.271-0.802c0.021-0.073,0.038-0.146,0.057-0.22
	c0.055-0.221,0.099-0.445,0.133-0.673c0.012-0.078,0.026-0.155,0.036-0.233c0.033-0.279,0.054-0.561,0.056-0.848
	c0-0.014,0.002-0.028,0.002-0.042c0-0.003,0-0.006,0-0.009C465,378.753,464.978,378.46,464.944,378.17z M35.807,413.084
	L16.16,379.05L205.032,51.913l156.234,270.607H321.97L211.527,131.229c-0.014-0.024-0.03-0.045-0.044-0.068
	c-0.081-0.137-0.169-0.269-0.259-0.401c-0.052-0.076-0.101-0.155-0.156-0.228c-0.085-0.116-0.178-0.226-0.27-0.338
	c-0.069-0.083-0.135-0.168-0.207-0.247c-0.079-0.088-0.166-0.17-0.25-0.255c-0.094-0.094-0.186-0.19-0.284-0.278
	c-0.071-0.064-0.146-0.123-0.22-0.184c-0.12-0.1-0.239-0.2-0.364-0.292c-0.068-0.05-0.14-0.095-0.21-0.143
	c-0.136-0.093-0.273-0.185-0.415-0.268c-0.023-0.014-0.043-0.03-0.067-0.043c-0.06-0.035-0.122-0.061-0.183-0.094
	c-0.132-0.071-0.263-0.141-0.399-0.204c-0.107-0.05-0.214-0.094-0.322-0.138c-0.113-0.046-0.225-0.092-0.34-0.133
	c-0.128-0.046-0.258-0.085-0.387-0.124c-0.099-0.029-0.197-0.058-0.296-0.083c-0.141-0.035-0.282-0.065-0.423-0.092
	c-0.095-0.018-0.191-0.036-0.287-0.05c-0.14-0.021-0.28-0.037-0.421-0.05c-0.104-0.01-0.208-0.018-0.313-0.023
	c-0.13-0.007-0.26-0.009-0.389-0.009c-0.118,0-0.236,0.002-0.354,0.008c-0.117,0.006-0.232,0.015-0.348,0.026
	c-0.129,0.012-0.258,0.027-0.386,0.046c-0.108,0.016-0.214,0.035-0.321,0.056c-0.131,0.025-0.262,0.053-0.392,0.085
	c-0.109,0.027-0.217,0.059-0.325,0.091c-0.121,0.036-0.241,0.073-0.36,0.115c-0.124,0.044-0.245,0.093-0.366,0.143
	c-0.1,0.041-0.199,0.082-0.298,0.128c-0.143,0.066-0.283,0.14-0.422,0.216c-0.055,0.03-0.112,0.054-0.166,0.085
	c-0.021,0.012-0.04,0.027-0.061,0.039c-0.148,0.087-0.292,0.183-0.435,0.281c-0.064,0.044-0.13,0.086-0.193,0.132
	c-0.13,0.095-0.254,0.198-0.377,0.302c-0.069,0.058-0.141,0.114-0.208,0.174c-0.1,0.091-0.195,0.189-0.291,0.286
	c-0.082,0.082-0.166,0.163-0.243,0.248c-0.073,0.081-0.141,0.167-0.21,0.252c-0.091,0.11-0.183,0.219-0.267,0.334
	c-0.054,0.074-0.104,0.153-0.156,0.229c-0.089,0.132-0.178,0.263-0.259,0.4c-0.014,0.023-0.03,0.044-0.044,0.068L35.807,413.084z
	 M304.649,322.521H162.031l71.309-123.51L304.649,322.521z M424.861,420.584H48.797l156.235-270.606l19.648,34.032L114.239,375.3
	c-0.658,1.141-1.005,2.437-1.005,3.753c0,4.143,3.357,7.5,7.5,7.5h49.636c4.143,0,7.5-3.357,7.5-7.5s-3.357-7.5-7.5-7.5h-36.647
	l19.649-34.032h164.26c0.005,0,0.01,0.001,0.015,0.001s0.01-0.001,0.015-0.001h52.265l19.648,34.032H200.37
	c-4.143,0-7.5,3.357-7.5,7.5s3.357,7.5,7.5,7.5h202.187c0.005,0,0.01,0.001,0.015,0.001s0.01-0.001,0.015-0.001h41.922
	L424.861,420.584z M406.896,371.553L218.022,44.413h39.278l187.264,327.14H406.896z"
  />
</svg>
