<?xml version="1.0" standalone="no"?>
<!DOCTYPE svg PUBLIC "-//W3C//DTD SVG 20010904//EN"
 "http://www.w3.org/TR/2001/REC-SVG-20010904/DTD/svg10.dtd">
<svg version="1.0" xmlns="http://www.w3.org/2000/svg"
 width="700.000000pt" height="700.000000pt" viewBox="0 0 700.000000 700.000000"
 preserveAspectRatio="xMidYMid meet">
<metadata>
Created by potrace 1.11, written by Peter Selinger 2001-2013
</metadata>
<g transform="translate(0.000000,700.000000) scale(0.100000,-0.100000)"
fill="#000000" stroke="none">
<path d="M4038 5395 c-2 -2 -27 -6 -56 -9 -108 -13 -224 -64 -304 -135 l-43
-39 92 -92 c85 -85 93 -91 108 -76 55 54 157 89 258 88 116 -2 209 -44 290
-131 136 -145 155 -361 45 -486 -62 -70 -176 -127 -287 -143 -90 -13 -360 -7
-528 13 -21 2 -60 7 -88 10 -79 8 -461 66 -595 89 -22 4 -129 19 -215 31 -157
21 -437 27 -575 13 -352 -37 -727 -206 -967 -436 -29 -27 -53 -54 -53 -59 0
-5 40 -48 88 -94 l89 -84 77 67 c70 61 206 158 222 158 3 0 18 8 32 19 53 37
300 127 402 146 188 35 520 40 665 10 11 -2 43 -7 70 -10 28 -3 57 -8 65 -10
8 -2 38 -6 65 -10 28 -3 118 -17 200 -30 228 -37 276 -44 330 -50 28 -3 61 -8
75 -10 100 -17 194 -23 410 -29 253 -7 371 13 529 91 95 47 212 159 258 248
79 152 87 347 21 505 -114 271 -330 431 -601 444 -42 2 -78 2 -79 1z"/>
<path d="M4830 3839 c-19 -4 -51 -9 -70 -12 -19 -2 -82 -16 -140 -30 -58 -14
-125 -29 -150 -32 -24 -4 -47 -8 -50 -10 -3 -2 -33 -7 -65 -10 -33 -4 -69 -9
-80 -11 -113 -24 -617 -23 -800 1 -35 4 -159 17 -195 20 -23 2 -97 10 -175 20
-16 2 -58 7 -93 10 -35 4 -72 8 -84 10 -11 3 -46 7 -77 10 -31 4 -63 8 -71 10
-49 13 -178 20 -340 19 -149 0 -207 -5 -300 -23 -364 -72 -703 -254 -967 -520
-35 -36 -60 -67 -56 -71 5 -4 49 -41 99 -83 l91 -76 59 57 c138 132 277 229
439 307 155 75 324 127 464 143 123 13 374 7 493 -13 25 -4 150 -20 237 -30
30 -4 61 -8 70 -10 9 -1 48 -6 86 -9 39 -4 81 -9 95 -11 14 -2 61 -6 104 -10
43 -4 86 -8 96 -10 91 -17 582 -26 735 -12 78 6 230 24 270 31 51 10 185 38
235 51 136 35 221 44 370 40 84 -2 158 -9 195 -19 257 -70 388 -259 371 -536
-11 -202 -91 -372 -227 -486 -129 -108 -331 -143 -536 -93 -246 60 -395 222
-402 440 l-1 25 -112 -2 c-62 -1 -121 -3 -131 -3 -16 -1 -17 -8 -12 -63 29
-299 213 -524 511 -626 34 -12 72 -23 85 -26 13 -3 49 -10 79 -16 71 -15 238
-15 317 -1 265 49 457 196 583 446 138 275 141 605 8 845 -109 197 -287 316
-543 363 -85 16 -353 20 -415 6z"/>
<path d="M2619 3146 c-2 -2 -35 -6 -74 -10 -152 -12 -333 -52 -506 -112 -196
-67 -480 -225 -601 -334 l-43 -39 89 -89 90 -90 55 42 c31 22 58 44 61 47 24
28 237 143 355 192 64 27 238 83 276 91 13 2 62 11 109 20 92 18 234 30 345
29 406 -1 730 -136 833 -345 36 -73 42 -98 47 -194 12 -232 -128 -419 -358
-480 -32 -8 -89 -12 -147 -10 -158 5 -254 56 -313 165 -59 108 -70 202 -36
302 12 35 26 69 31 76 11 13 7 16 -129 90 -102 56 -103 56 -135 -17 -102 -230
-40 -539 144 -712 143 -135 397 -194 627 -147 69 14 177 55 212 80 15 10 30
19 34 19 14 0 83 58 143 119 74 77 152 225 176 336 24 107 16 278 -17 380 -89
270 -326 458 -687 545 -41 10 -97 21 -125 25 -27 4 -61 9 -75 12 -30 6 -376
14 -381 9z"/>
</g>
</svg>
