<svg id="Layer_2" height="512" viewBox="0 0 128 128" width="512" xmlns="http://www.w3.org/2000/svg" xmlns:xlink="http://www.w3.org/1999/xlink" data-name="Layer 2"><linearGradient id="linear-gradient" gradientUnits="userSpaceOnUse" x1="106.715" x2="17.732" y1="133.993" y2="45.01"><stop offset="0" stop-color="#f43d58"/><stop offset="1" stop-color="#ffd00d"/></linearGradient><path d="m25.875 71.27a1.75 1.75 0 0 1 2.112-1.289l2.09.506a1.75 1.75 0 0 1 -.823 3.4l-2.09-.506a1.75 1.75 0 0 1 -1.289-2.111zm102.125 33.859c0 7.126-2.884 12.5-6.708 12.5a4.024 4.024 0 0 1 -1.1-.168h-.019l-56.173-13.607-56.173 13.605h-.019a4.023 4.023 0 0 1 -1.1.168c-3.825 0-6.708-5.374-6.708-12.5 0-6.921 2.723-12.175 6.384-12.471l5.694-1.379-5.607-1.357c-3.706-.22-6.471-5.52-6.471-12.493 0-7.126 2.884-12.5 6.708-12.5a4.07 4.07 0 0 1 1.165.182l10.414 2.522a1.75 1.75 0 0 1 -.824 3.4l-10.463-2.531-.1-.028a.8.8 0 0 0 -.191-.044c-1.131 0-3.208 3.417-3.208 9s2.077 9 3.208 9a1.778 1.778 0 0 1 .412.049l31.1 7.533 26.189 6.343 51.524 12.479a18.961 18.961 0 0 1 -1.233-5.246l-23.631-5.935a1.75 1.75 0 1 1 .853-3.395l22.687 5.7a16.724 16.724 0 0 1 2.523-8.781l-9.059-2.194-23.346-5.657-45.773-11.086a1.75 1.75 0 0 1 .824-3.4l2.976.721a32.831 32.831 0 0 1 -6.955-20.512c0-16.567 15.173-40.834 15.819-41.858a1.75 1.75 0 0 1 3.217.715c.661 5.257 3.82 19.009 10.473 20.432 4.686-1.1 9.327-7.446 10.746-9.851a1.751 1.751 0 0 1 2.846-.24c.539.644 13.299 15.955 13.299 30.802a32.83 32.83 0 0 1 -6.959 20.51l34.881-8.448a4.07 4.07 0 0 1 1.165-.182c3.825 0 6.708 5.374 6.708 12.5 0 6.978-2.765 12.275-6.471 12.493l-5.607 1.358 5.694 1.379c3.666.297 6.389 5.551 6.389 12.472zm-47.831-26.742-5.79 1.4-2.94.712 37.052 8.974 12.392-3a1.778 1.778 0 0 1 .412-.049c1.131 0 3.208-3.417 3.208-9s-2.077-9-3.208-9a.8.8 0 0 0 -.191.044l-.1.028zm-40.869-25.34a29.082 29.082 0 0 0 9.762 22.036l1.071.259a15.2 15.2 0 0 1 -1.437-6.426c0-8.118 12.788-18.133 14.246-19.247a1.749 1.749 0 0 1 2.126 0 68.343 68.343 0 0 1 5.589 4.9 1.75 1.75 0 0 1 -2.444 2.506c-1.667-1.628-3.23-2.966-4.215-3.777-4.076 3.334-11.8 10.673-11.8 15.619a11.753 11.753 0 0 0 2.792 7.6l9.01 2.183 9.017-2.184a11.753 11.753 0 0 0 2.792-7.6 1.75 1.75 0 0 1 3.5 0 15.2 15.2 0 0 1 -1.437 6.426l1.071-.26a29.083 29.083 0 0 0 9.757-22.035c0-10.726-7.736-22.256-11.029-26.678-2.186 3.068-6.714 8.482-12.029 9.47a1.713 1.713 0 0 1 -.59.008c-7.76-1.217-11.369-12.276-12.835-18.793-4.288 7.561-12.917 24.246-12.917 35.993zm-35.8 52.082c0 5.583 2.077 9 3.208 9 1.255 0 2.069-2.411 2.377-3.343a18.1 18.1 0 0 0 .831-5.656c0-5.583-2.077-9-3.208-9-1.135.006-3.208 3.422-3.208 8.999zm53.065-3.076-7.081-1.715-24.321 5.9a1.769 1.769 0 0 1 -2.113-1.288 1.749 1.749 0 0 1 1.288-2.112l17.719-4.3-.462-.112-22.082-5.347-8.649 2.095a16.542 16.542 0 0 1 2.5 8.413 21.2 21.2 0 0 1 -1.3 9.246zm67.935 3.076c0-5.577-2.073-8.992-3.2-9-1.131 0-3.208 3.417-3.208 9a18.085 18.085 0 0 0 .831 5.656c.309.934 1.121 3.343 2.377 3.343 1.123.001 3.2-3.416 3.2-8.999zm-24.541-25.769a1.75 1.75 0 0 0 1.706 1.367 1.791 1.791 0 0 0 .384-.042l12-2.69a1.75 1.75 0 0 0 -.766-3.416l-12 2.69a1.75 1.75 0 0 0 -1.324 2.091zm-24.9 14.453a1.75 1.75 0 1 0 .888-3.385l-13.982-3.666a1.75 1.75 0 1 0 -.888 3.385zm-58.889-12.421a1.75 1.75 0 0 0 1.309 2.1l15.792 3.667a1.8 1.8 0 0 0 .4.045 1.75 1.75 0 0 0 .395-3.455l-15.795-3.667a1.754 1.754 0 0 0 -2.101 1.31z" fill="url(#linear-gradient)"/></svg>